<svg width="65" height="41" viewBox="0 0 65 41" fill="none" xmlns="http://www.w3.org/2000/svg">
<path d="M35.2002 28.2811H37.8098V22.8348H41.5345C44.6794 22.8348 46.6868 20.7008 46.6868 17.7219C46.6868 14.8321 44.724 12.7202 41.5345 12.7202H35.2002V28.2811ZM37.8098 20.4785V15.0544H41.0885C42.8951 15.0544 44.0103 16.0102 44.0103 17.7219C44.0103 19.5226 42.962 20.4785 41.0885 20.4785H37.8098Z" fill="black"/>
<path d="M46.3061 28.4812C47.3321 28.4812 47.912 27.8365 47.912 26.8584C47.912 25.8803 47.3321 25.2356 46.3061 25.2356C45.2355 25.2356 44.6779 25.8803 44.6779 26.8584C44.6779 27.8365 45.2355 28.4812 46.3061 28.4812Z" fill="black"/>
<path d="M53.0009 28.4813C54.5399 28.4813 55.722 27.9033 56.3911 26.9252H56.4803L56.6588 28.2812H58.8892V20.6342C58.8892 18.3667 57.1718 16.6106 54.1384 16.6106C51.2389 16.6106 49.5215 18.2333 49.5215 20.4119H51.9303C51.9526 19.4782 52.6887 18.7002 54.0938 18.7002C55.6997 18.7002 56.3688 19.5894 56.3688 20.6564V21.7234C55.7666 21.5456 54.7406 21.3455 53.6923 21.3455C50.3913 21.3455 48.9862 22.9016 48.9862 24.9023C48.9862 26.9252 50.4583 28.4813 53.0009 28.4813ZM53.5808 26.4584C52.198 26.4584 51.5288 25.747 51.5288 24.8134C51.5288 23.7908 52.3318 23.1684 53.8708 23.1684C54.7183 23.1684 55.5213 23.2795 56.3688 23.5685V23.9464C56.3688 25.3024 55.2759 26.4584 53.5808 26.4584Z" fill="black"/>
<path d="M62.2993 15.0544C63.3476 15.0544 63.9275 14.4319 63.9275 13.4538C63.9275 12.4757 63.3476 11.8755 62.2993 11.8755C61.2287 11.8755 60.6711 12.4757 60.6711 13.4538C60.6711 14.4319 61.2287 15.0544 62.2993 15.0544ZM61.028 28.2811H63.5707V16.8105H61.028V28.2811Z" fill="black"/>
<path fill-rule="evenodd" clip-rule="evenodd" d="M25.3065 4.38703L18.3803 0.5L0 10.3804V18.1816L4.3594 20.5L0.00991187 22.8638V36.5532L6.94283 40.317L13.9115 36.5731V30.4562L25.3065 24.3309V4.38703ZM2.51652 11.8427L18.3809 3.30915L21.5032 5.06964L6.95204 12.8099V15.58L22.8195 7.14923L22.8099 22.8473L11.4198 29.0086V35.1509L6.96838 37.5545L2.5066 35.1347V24.3189L17.1074 16.4063V19.7055L5.71734 25.9343V33.5149L8.21401 32.1727V27.3601L19.609 21.1201V12.2369L6.9604 19.0916L2.51652 16.7223V11.8427Z" fill="url(#paint0_linear_0_9)"/>
<defs>
<linearGradient id="paint0_linear_0_9" x1="12.6533" y1="0.5" x2="12.6533" y2="40.317" gradientUnits="userSpaceOnUse">
<stop stop-color="#7E5FFF"/>
<stop offset="1" stop-color="#39AAFF"/>
</linearGradient>
</defs>
</svg>
