<svg width="168" height="32" viewBox="0 0 168 32" fill="none" xmlns="http://www.w3.org/2000/svg">
<g clip-path="url(#clip0_0_1496)">
<path d="M138.865 31.76C133.117 31.76 129.104 27.628 129.104 21.711C129.052 18.9649 130.079 16.308 131.965 14.311C132.904 13.366 134.023 12.6201 135.257 12.1178C136.491 11.6156 137.813 11.3674 139.145 11.388V11.663C136.675 12.826 134.951 16.296 134.951 20.101C134.951 24.846 137.661 27.677 142.203 27.677C144.039 27.7594 145.844 27.189 147.299 26.067V26.42C146.594 28.0557 145.412 29.4406 143.907 30.3933C142.402 31.3461 140.645 31.8225 138.865 31.76ZM90.099 31.76C86.375 31.76 84.062 29.323 84.062 25.401V14.411H80.73V13.98L89.197 6.24702H89.667V23.752C89.667 26.627 91.235 28.344 93.862 28.344C94.7199 28.3362 95.5696 28.1768 96.372 27.873V28.147C95.7131 29.2416 94.7978 30.1593 93.705 30.821C92.6098 31.4537 91.3637 31.7782 90.099 31.76ZM64.384 31.76C63.3172 31.7642 62.2637 31.5229 61.3051 31.0547C60.3465 30.5865 59.5085 29.904 58.856 29.06C57.4136 27.1056 56.6682 24.724 56.739 22.296C56.6792 19.411 57.7221 16.6117 59.655 14.469C60.5832 13.4837 61.7055 12.7013 62.951 12.171C64.1965 11.6408 65.5383 11.3742 66.892 11.388C68.0179 11.3632 69.1375 11.5635 70.185 11.977V12.29C69.1537 12.2854 68.1343 12.51 67.2006 12.9478C66.2668 13.3855 65.4421 14.0254 64.786 14.821C63.3485 16.6467 62.5959 18.9182 62.659 21.241C62.659 25.202 64.835 27.991 67.951 28.031C68.7712 28.0256 69.5782 27.8232 70.304 27.441V27.676C68.948 30.348 66.901 31.76 64.384 31.76ZM44.744 31.76C38.997 31.76 34.983 27.628 34.983 21.711C34.9302 18.9627 35.962 16.3042 37.855 14.311C38.7979 13.3666 39.9209 12.6212 41.1574 12.1191C42.3938 11.617 43.7186 11.3684 45.053 11.388V11.663C42.559 12.838 40.819 16.307 40.819 20.101C40.819 24.774 43.598 27.677 48.073 27.677C49.9082 27.7589 51.7131 27.1885 53.168 26.067V26.42C52.4722 28.0602 51.2935 29.4497 49.7887 30.4036C48.2838 31.3575 46.5243 31.8306 44.744 31.76ZM9.73698 31.76C6.01298 31.76 3.69998 29.323 3.69998 25.4V14.41H0.328979V13.979L8.83598 6.24502H9.30598V23.751C9.30598 26.626 10.858 28.343 13.46 28.343C14.33 28.3334 15.192 28.1741 16.008 27.872V28.146C15.3334 29.2376 14.4098 30.154 13.313 30.82C12.2281 31.4513 10.9921 31.7759 9.73698 31.759V31.76ZM118.793 31.642H118.401L110.288 11.78H116.325L121.813 25.322L118.795 31.641L118.793 31.642ZM107.856 31.642H107.465L99.35 11.78H105.386L110.874 25.322L107.856 31.641V31.642ZM167.599 31.368H161.994V1.61502L167.599 0.947021V31.368ZM156.977 31.368H151.371V1.61502L156.977 0.947021V31.368ZM76.888 31.368H71.282V12.015L76.888 11.387V31.368ZM25.457 31.368H19.85V12.015L25.456 11.387V31.368H25.457ZM139.337 23.203C138.446 23.202 137.561 23.07 136.709 22.811V22.537C139.611 22.291 141.881 19.222 141.881 15.55C141.881 13.55 141.331 12.243 140.231 11.664V11.389C142.049 11.3553 143.828 11.9211 145.293 12.999C145.892 13.4483 146.379 14.0294 146.718 14.6974C147.056 15.3654 147.236 16.1023 147.243 16.851C147.218 17.7256 146.994 18.5829 146.588 19.358C146.182 20.1332 145.605 20.8058 144.901 21.325C143.313 22.5654 141.351 23.2278 139.336 23.203H139.337ZM45.253 23.203C44.3625 23.2056 43.4769 23.0735 42.626 22.811V22.537C45.506 22.289 47.762 19.22 47.762 15.55C47.762 13.551 47.212 12.249 46.112 11.664V11.389C47.9301 11.3559 49.7085 11.922 51.173 13C51.7719 13.4493 52.2594 14.0304 52.5976 14.6984C52.9357 15.3664 53.1155 16.1033 53.123 16.852C53.0991 17.7248 52.8777 18.5809 52.4753 19.3558C52.073 20.1307 51.5002 20.8044 50.8 21.326C49.2195 22.5674 47.2615 23.2301 45.252 23.204L45.253 23.203ZM124.046 19.351H123.772C123.608 16.7326 122.971 14.1656 121.89 11.775H127.888L124.046 19.35V19.351ZM26.32 17.354V17.158C26.5243 15.5973 27.1586 14.1241 28.152 12.903C28.6152 12.4023 29.1813 12.0077 29.8113 11.7462C30.4413 11.4848 31.1203 11.3626 31.802 11.388C32.267 11.375 32.732 11.441 33.174 11.584V16.134C32.4686 15.8369 31.7054 15.7023 30.941 15.74C30.1013 15.6746 29.2572 15.7836 28.4617 16.0604C27.6663 16.3371 26.9367 16.7755 26.319 17.348V17.354H26.32ZM96.488 14.41H91.04V11.78H96.488V14.409V14.41ZM16.128 14.41H10.673V11.78H16.123V14.409H16.127L16.128 14.41Z" fill="white"/>
</g>
<defs>
<clipPath id="clip0_0_1496">
<rect width="168" height="32" fill="white"/>
</clipPath>
</defs>
</svg>
